<svg xmlns="http://www.w3.org/2000/svg" viewBox="0 0 613.87 649.95" fill="#ffffff">
  <path d="M582.52,264.15l-145.26,359.35-321.82.06c-6.08.83-16.45,14.81-22.37,18.03l-7.89,8.36h365.35l163.34-404.9-31.36,19.1Z"/>
  <polygon points="595.43 56.21 390.81 563 37.76 563 119.17 486.76 345.15 486.15 470.53 173.5 595.43 56.21"/>
  <polygon points="554.16 0 479.77 70.09 252.17 70.38 125.94 385.5 0 504.15 204.18 0 554.16 0"/>
  <polygon points="67.62 606.91 420.23 606.91 600.26 160.72 567.41 184.96 407.4 580.46 94.45 580.54 67.62 606.91"/>
  <polygon points="467.5 173.14 352.72 173.14 128.21 384.7 245.46 384.7 467.5 173.14"/>
</svg>
